solid upper_jaw_filename_match_test
  facet normal 0 0 -1
    outer loop
      vertex -20 -15 0
      vertex 20 15 0
      vertex 20 -15 0
    endloop
  endfacet
  facet normal 0 0 -1
    outer loop
      vertex -20 -15 0
      vertex -20 15 0
      vertex 20 15 0
    endloop
  endfacet
  facet normal 0 0 1
    outer loop
      vertex -20 -15 8
      vertex 20 -15 8
      vertex 20 15 8
    endloop
  endfacet
  facet normal 0 0 1
    outer loop
      vertex -20 -15 8
      vertex 20 15 8
      vertex -20 15 8
    endloop
  endfacet
  facet normal 0 -1 0
    outer loop
      vertex -20 -15 0
      vertex 20 -15 0
      vertex 20 -15 8
    endloop
  endfacet
  facet normal 0 -1 0
    outer loop
      vertex -20 -15 0
      vertex 20 -15 8
      vertex -20 -15 8
    endloop
  endfacet
  facet normal 0 1 0
    outer loop
      vertex -20 15 0
      vertex 20 15 8
      vertex 20 15 0
    endloop
  endfacet
  facet normal 0 1 0
    outer loop
      vertex -20 15 0
      vertex -20 15 8
      vertex 20 15 8
    endloop
  endfacet
  facet normal -1 0 0
    outer loop
      vertex -20 -15 0
      vertex -20 -15 8
      vertex -20 15 8
    endloop
  endfacet
  facet normal -1 0 0
    outer loop
      vertex -20 -15 0
      vertex -20 15 8
      vertex -20 15 0
    endloop
  endfacet
  facet normal 1 0 0
    outer loop
      vertex 20 -15 0
      vertex 20 15 0
      vertex 20 15 8
    endloop
  endfacet
  facet normal 1 0 0
    outer loop
      vertex 20 -15 0
      vertex 20 15 8
      vertex 20 -15 8
    endloop
  endfacet
endsolid upper_jaw_filename_match_test
